<?xml version="1.0" encoding="iso-8859-1"?>
<!-- Generator: Adobe Illustrator 19.0.0, SVG Export Plug-In . SVG Version: 6.00 Build 0)  -->
<svg xmlns="http://www.w3.org/2000/svg" xmlns:xlink="http://www.w3.org/1999/xlink" version="1.1" id="Layer_1" x="0px" y="0px" viewBox="0 0 512 512" style="enable-background:new 0 0 512 512;" xml:space="preserve">
<path style="fill:#1CC0F9;" d="M273.001,35.587H127.319H99.316H56.987c-27.01,0-48.909,21.899-48.909,48.907v114.122  c0,27.009,21.899,48.909,48.909,48.909h15.836l55.758,61.105v-61.105h61.785c2.599-24.563,23.379-43.705,48.631-43.705h82.632  c0.182-1.71,0.279-3.446,0.279-5.204V84.494C321.91,57.485,300.01,35.587,273.001,35.587z M89.556,159.337  c-8.922,0-16.156-7.235-16.156-16.156c0-8.923,7.234-16.156,16.156-16.156s16.156,7.232,16.156,16.156  C105.712,152.103,98.48,159.337,89.556,159.337z M163.504,159.337c-8.923,0-16.156-7.235-16.156-16.156  c0-8.923,7.232-16.156,16.156-16.156c8.921,0,16.156,7.232,16.156,16.156C179.66,152.103,172.425,159.337,163.504,159.337z   M237.449,159.337c-8.922,0-16.156-7.235-16.156-16.156c0-8.923,7.234-16.156,16.156-16.156s16.156,7.232,16.156,16.156  C253.605,152.103,246.372,159.337,237.449,159.337z"/>
<path style="fill:#00A8E2;" d="M68.33,245.396c-20.035-6.117-34.613-24.745-34.613-46.781V84.494  c0-27.008,21.899-48.907,48.909-48.907H56.987c-27.01,0-48.909,21.899-48.909,48.907v114.122c0,27.009,21.899,48.909,48.909,48.909  H68.33V245.396z"/>
<path style="fill:#04C051;" d="M406.277,203.82H238.999c-27.01,0-48.909,21.899-48.909,48.907v114.122  c0,27.009,21.899,48.909,48.909,48.909h149.867v60.656l55.349-60.656h10.797c27.009,0,48.909-21.9,48.909-48.909V252.728  c0-27.008-21.9-48.907-48.909-48.907h-21.809"/>
<path style="fill:#0CAD4D;" d="M215.729,366.85V252.728c0-27.008,21.899-48.907,48.909-48.907h-25.639  c-27.01,0-48.909,21.899-48.909,48.907V366.85c0,27.009,21.899,48.909,48.909,48.909h25.639  C237.628,415.759,215.729,393.859,215.729,366.85z"/>
<g>
	<path style="fill:#231F20;" d="M455.013,195.742h-21.809c-4.461,0-8.078,3.616-8.078,8.078c0,4.462,3.617,8.078,8.078,8.078h21.809   c22.515,0,40.831,18.316,40.831,40.829v114.122c0,22.514-18.316,40.831-40.831,40.831h-10.796c-2.27,0-4.436,0.956-5.967,2.632   l-41.304,45.264v-39.82c0-4.462-3.617-8.078-8.078-8.078H238.999c-22.515,0-40.831-18.318-40.831-40.831v-114.12   c0-1.659,0.111-3.291,0.305-4.9c0.055-0.457,0.108-0.914,0.177-1.366c2.604-16.835,15.53-30.307,32.089-33.724   c0.022-0.004,0.044-0.01,0.066-0.014c0.59-0.121,1.187-0.225,1.787-0.32c0.092-0.014,0.182-0.031,0.275-0.045   c0.537-0.081,1.079-0.146,1.623-0.207c0.142-0.015,0.283-0.036,0.426-0.05c0.518-0.052,1.04-0.087,1.564-0.12   c0.16-0.01,0.319-0.026,0.479-0.033c0.676-0.033,1.356-0.052,2.041-0.052h82.632h84.646c4.461,0,8.078-3.616,8.078-8.078   c0-4.462-3.617-8.078-8.078-8.078h-76.289V84.494c0-31.422-25.564-56.985-56.987-56.985H127.319c-4.461,0-8.078,3.616-8.078,8.078   s3.617,8.078,8.078,8.078h145.682c22.515,0,40.831,18.316,40.831,40.829v111.248h-74.833c-0.922,0-1.839,0.027-2.751,0.07   c-0.252,0.012-0.501,0.033-0.752,0.048c-0.679,0.041-1.355,0.09-2.027,0.155c-0.246,0.024-0.49,0.052-0.735,0.079   c-0.712,0.078-1.421,0.168-2.124,0.27c-0.169,0.025-0.338,0.05-0.507,0.076c-22.41,3.494-40.618,19.985-46.265,41.96   c-0.016,0.064-0.033,0.127-0.05,0.191c-0.072,0.285-0.154,0.567-0.222,0.854h-54.985c-4.462,0-8.078,3.616-8.078,8.078v40.269   L78.79,242.08c-1.531-1.677-3.696-2.632-5.967-2.632H56.987c-22.515,0-40.831-18.318-40.831-40.831V84.494   c0-22.513,18.316-40.829,40.831-40.829h42.328c4.461,0,8.078-3.616,8.078-8.078s-3.617-8.078-8.078-8.078H56.987   C25.564,27.509,0,53.071,0,84.494v114.122c0,31.423,25.564,56.987,56.987,56.987h12.272l53.356,58.472   c1.561,1.71,3.742,2.632,5.969,2.632c0.979,0,1.968-0.178,2.918-0.546c3.109-1.205,5.158-4.197,5.158-7.532v-53.027h45.352v111.246   c0,31.423,25.564,56.987,56.987,56.987h141.79v52.578c0,3.335,2.049,6.327,5.158,7.532c0.95,0.368,1.939,0.546,2.919,0.546   c2.226,0,4.407-0.922,5.968-2.632l52.946-58.023h7.232c31.423,0,56.987-25.564,56.987-56.987V252.728   C512,221.306,486.436,195.742,455.013,195.742z"/>
	<path style="fill:#231F20;" d="M258.688,271.472h97.154c4.462,0,8.078-3.616,8.078-8.078c0-4.462-3.616-8.078-8.078-8.078h-97.154   c-4.462,0-8.078,3.616-8.078,8.078C250.61,267.856,254.226,271.472,258.688,271.472z"/>
	<path style="fill:#231F20;" d="M437.479,289.065H258.688c-4.462,0-8.078,3.616-8.078,8.078s3.616,8.078,8.078,8.078h178.792   c4.462,0,8.078-3.616,8.078-8.078S441.941,289.065,437.479,289.065z"/>
	<path style="fill:#231F20;" d="M437.479,322.811H258.688c-4.462,0-8.078,3.616-8.078,8.078c0,4.462,3.616,8.078,8.078,8.078   h178.792c4.462,0,8.078-3.616,8.078-8.078C445.557,326.427,441.941,322.811,437.479,322.811z"/>
	<path style="fill:#231F20;" d="M437.479,356.56H258.688c-4.462,0-8.078,3.616-8.078,8.078s3.616,8.078,8.078,8.078h178.792   c4.462,0,8.078-3.616,8.078-8.078S441.941,356.56,437.479,356.56z"/>
	<path style="fill:#231F20;" d="M89.556,118.948c-13.363,0-24.234,10.872-24.234,24.234c0,13.362,10.871,24.234,24.234,24.234   s24.234-10.872,24.234-24.234S102.92,118.948,89.556,118.948z M89.556,151.259c-4.455,0-8.078-3.623-8.078-8.078   s3.623-8.078,8.078-8.078s8.078,3.623,8.078,8.078S94.011,151.259,89.556,151.259z"/>
	<path style="fill:#231F20;" d="M187.738,143.181c0-13.362-10.871-24.234-24.234-24.234s-24.234,10.872-24.234,24.234   c0,13.362,10.871,24.234,24.234,24.234S187.738,156.543,187.738,143.181z M155.426,143.181c0-4.455,3.623-8.078,8.078-8.078   s8.078,3.623,8.078,8.078s-3.623,8.078-8.078,8.078S155.426,147.635,155.426,143.181z"/>
	<path style="fill:#231F20;" d="M261.683,143.181c0-13.362-10.872-24.234-24.234-24.234c-13.362,0-24.234,10.872-24.234,24.234   c0,13.362,10.872,24.234,24.234,24.234C250.811,167.415,261.683,156.543,261.683,143.181z M229.371,143.181   c0-4.455,3.623-8.078,8.078-8.078s8.078,3.623,8.078,8.078s-3.623,8.078-8.078,8.078S229.371,147.635,229.371,143.181z"/>
</g>
<g>
</g>
<g>
</g>
<g>
</g>
<g>
</g>
<g>
</g>
<g>
</g>
<g>
</g>
<g>
</g>
<g>
</g>
<g>
</g>
<g>
</g>
<g>
</g>
<g>
</g>
<g>
</g>
<g>
</g>
</svg>
